<svg width="32" height="32" viewBox="0 0 32 32" fill="none" xmlns="http://www.w3.org/2000/svg">
  <defs>
    <linearGradient id="bg" x1="0%" y1="0%" x2="100%" y2="100%">
      <stop offset="0%" style="stop-color:#6366f1;stop-opacity:1" />
      <stop offset="100%" style="stop-color:#8b5cf6;stop-opacity:1" />
    </linearGradient>
  </defs>

  <!-- Background -->
  <rect width="32" height="32" rx="7" fill="url(#bg)"/>

  <!-- Centered config bracket symbols { } -->
  <g stroke="white" stroke-width="2.5" stroke-linecap="round" fill="none" opacity="0.95">
    <!-- Left bracket { -->
    <path d="M 13.5 9 C 11.5 9 10.5 10 10.5 12 L 10.5 13.5 C 10.5 14.5 9.5 15.5 8.5 16 C 9.5 16.5 10.5 17.5 10.5 18.5 L 10.5 20 C 10.5 22 11.5 23 13.5 23"/>

    <!-- Right bracket } -->
    <path d="M 18.5 9 C 20.5 9 21.5 10 21.5 12 L 21.5 13.5 C 21.5 14.5 22.5 15.5 23.5 16 C 22.5 16.5 21.5 17.5 21.5 18.5 L 21.5 20 C 21.5 22 20.5 23 18.5 23"/>
  </g>
</svg>
